<svg xmlns="http://www.w3.org/2000/svg" width="100" height="22.7"><g style="line-height:125%" font-size="18" letter-spacing="-.1" word-spacing="0" font-family="Arial Black" font-weight="900"><path d="M0 .008h13.126c2.188 0 3.865.542 5.03 1.625 1.177 1.083 1.766 2.425 1.766 4.024 0 1.342-.418 2.492-1.254 3.452-.557.64-1.372 1.144-2.446 1.516 1.63.392 2.827 1.068 3.59 2.028.775.95 1.162 2.146 1.162 3.59 0 1.177-.273 2.235-.82 3.174-.547.94-1.295 1.682-2.244 2.23-.588.34-1.476.587-2.662.742-1.58.206-2.626.31-3.142.31H.002V.008m7.074 8.9h3.05c1.093 0 1.85-.186 2.274-.557.433-.38.65-.928.65-1.64 0-.66-.217-1.176-.65-1.548-.423-.37-1.166-.557-2.23-.557H7.076v4.303m0 8.916h3.576c1.208 0 2.06-.21 2.555-.635.495-.434.743-1.012.743-1.735 0-.67-.248-1.207-.743-1.61-.485-.413-1.342-.62-2.57-.62h-3.56v4.598M22.994 11.37c0-3.583.998-6.372 2.994-8.368C27.984 1.006 30.763.008 34.325.008c3.652 0 6.466.983 8.442 2.95 1.976 1.955 2.964 4.7 2.964 8.23 0 2.565-.433 4.67-1.3 6.317-.86 1.637-2.107 2.914-3.743 3.832-1.627.908-3.657 1.362-6.092 1.362-2.475 0-4.525-.395-6.152-1.184-1.617-.788-2.93-2.036-3.937-3.742s-1.512-3.842-1.512-6.407m6.78.03c0 2.215.41 3.807 1.228 4.775.828.968 1.95 1.452 3.368 1.452 1.457 0 2.584-.474 3.383-1.422.798-.948 1.197-2.65 1.197-5.104 0-2.066-.42-3.572-1.257-4.52-.828-.958-1.956-1.437-3.383-1.437-1.367 0-2.465.485-3.293 1.453-.828.968-1.242 2.57-1.242 4.805M47.75.008h9.225l3.56 13.807L64.08.008h9.194V22.7h-5.727V5.395L63.105 22.7H57.92L53.493 5.395V22.7H47.75V.008M91.547 18.954H83.56l-1.1 3.746h-7.166L83.824.008h7.646L100 22.7H92.66l-1.114-3.746m-1.47-4.907L87.57 5.89l-2.492 8.157h5" style="text-align:start;line-height:125%;-inkscape-font-specification:'Arial Black, Heavy'"/></g></svg>