<svg xmlns="http://www.w3.org/2000/svg" width="100" height="22.7"><g style="line-height:125%" font-size="18" letter-spacing="-.1" word-spacing="0" font-family="Arial Black" font-weight="900"><path d="M0 .008h13.126c2.188 0 3.865.542 5.031 1.625 1.176 1.083 1.765 2.425 1.765 4.024 0 1.342-.418 2.492-1.254 3.452-.557.64-1.372 1.145-2.446 1.517 1.63.392 2.827 1.068 3.591 2.028.774.949 1.161 2.146 1.161 3.591 0 1.176-.273 2.234-.82 3.173-.547.939-1.295 1.682-2.244 2.229-.588.341-1.476.588-2.662.743-1.579.206-2.626.31-3.142.31h-12.104v-22.692m7.074 8.9h3.049c1.094 0 1.852-.186 2.275-.557.433-.382.65-.929.65-1.641 0-.66-.217-1.176-.65-1.548-.423-.371-1.166-.557-2.229-.557h-3.096v4.303m0 8.916h3.576c1.207 0 2.059-.211 2.554-.635.495-.433.743-1.011.743-1.734 0-.671-.248-1.207-.743-1.61-.485-.413-1.342-.619-2.57-.619h-3.56v4.597" style="text-align:start;line-height:125%;-inkscape-font-specification:'Arial Black, Heavy'"/><path d="M22.994 11.369c0-3.582.998-6.371 2.994-8.367 1.996-1.996 4.775-2.994 8.337-2.994 3.652 0 6.466.983 8.442 2.949 1.976 1.956 2.964 4.7 2.964 8.232 0 2.564-.434 4.67-1.302 6.316-.858 1.637-2.106 2.914-3.742 3.832-1.627.908-3.657 1.362-6.092 1.362-2.475 0-4.525-.394-6.152-1.183-1.617-.788-2.929-2.036-3.937-3.742s-1.512-3.842-1.512-6.407m6.781.03c0 2.215.409 3.807 1.227 4.775.828.968 1.951 1.452 3.368 1.452 1.457 0 2.584-.474 3.383-1.422.798-.948 1.197-2.649 1.197-5.104 0-2.066-.419-3.572-1.257-4.52-.828-.958-1.956-1.437-3.383-1.437-1.367 0-2.465.484-3.293 1.452-.828.968-1.242 2.57-1.242 4.805" style="text-align:start;line-height:125%;-inkscape-font-specification:'Arial Black, Heavy'"/><path d="M47.75.008h9.225l3.56 13.807 3.545-13.807h9.194v22.692h-5.727v-17.305l-4.442 17.305h-5.185l-4.427-17.305v17.305h-5.743v-22.692" style="text-align:start;line-height:125%;-inkscape-font-specification:'Arial Black, Heavy'"/><path d="M91.547 18.954h-7.987l-1.099 3.746h-7.167l8.529-22.692h7.647l8.529 22.692h-7.337l-1.114-3.746m-1.47-4.907l-2.508-8.157-2.492 8.157h5" style="text-align:start;line-height:125%;-inkscape-font-specification:'Arial Black, Heavy'"/></g></svg>